<svg xmlns="http://www.w3.org/2000/svg" width="1920" height="1080"><path d="M325,-249L464,-232L833,-234Z" fill="#ffd7b2" stroke="#ffd7b2" stroke-width="1.51"/><path d="M325,-249L833,-234L1281,-225Z" fill="#ffc79b" stroke="#ffc79b" stroke-width="1.51"/><path d="M833,-234L1081,-223L1281,-225Z" fill="#ffb989" stroke="#ffb989" stroke-width="1.51"/><path d="M680,1319L572,1328L1366,1329Z" fill="#c16026" stroke="#c16026" stroke-width="1.51"/><path d="M1281,-225L1636,-203L1959,-204Z" fill="#f19c73" stroke="#f19c73" stroke-width="1.51"/><path d="M1636,-203L1787,-193L1959,-204Z" fill="#e19570" stroke="#e19570" stroke-width="1.51"/><path d="M1523,1322L1366,1329L2053,1311Z" fill="#a83604" stroke="#a83604" stroke-width="1.51"/><path d="M1760,1277L1523,1322L2053,1311Z" fill="#9f3304" stroke="#9f3304" stroke-width="1.51"/><path d="M1951,503L1896,685L2063,492Z" fill="#c95d1e" stroke="#c95d1e" stroke-width="1.51"/><path d="M1904,56L1981,289L2122,247Z" fill="#cb7949" stroke="#cb7949" stroke-width="1.51"/><path d="M1981,289L2100,392L2122,247Z" fill="#c46f3a" stroke="#c46f3a" stroke-width="1.51"/><path d="M2063,492L1896,685L2135,705Z" fill="#c25517" stroke="#c25517" stroke-width="1.51"/><path d="M2091,1001L2082,1136L2135,705Z" fill="#af3903" stroke="#af3903" stroke-width="1.51"/><path d="M2095,867L2091,1001L2135,705Z" fill="#b44006" stroke="#b44006" stroke-width="1.51"/><path d="M1980,826L2095,867L2135,705Z" fill="#b94508" stroke="#b94508" stroke-width="1.51"/><path d="M2100,392L2063,492L2135,705Z" fill="#c15c20" stroke="#c15c20" stroke-width="1.51"/><path d="M2122,247L2100,392L2135,705Z" fill="#c0622a" stroke="#c0622a" stroke-width="1.51"/><path d="M1904,56L2122,247L2140,56Z" fill="#c87e52" stroke="#c87e52" stroke-width="1.51"/><path d="M2040,-110L1904,56L2140,56Z" fill="#cc855e" stroke="#cc855e" stroke-width="1.51"/><path d="M2062,-183L2040,-110L2140,56Z" fill="#c98765" stroke="#c98765" stroke-width="1.51"/><path d="M2122,247L2135,705L2140,56Z" fill="#c06a36" stroke="#c06a36" stroke-width="1.51"/><path d="M1896,685L1980,826L2135,705Z" fill="#c14c0b" stroke="#c14c0b" stroke-width="1.51"/><path d="M1953,1246L2053,1311L2082,1136Z" fill="#942f04" stroke="#942f04" stroke-width="1.51"/><path d="M1955,964L2091,1001L2095,867Z" fill="#b33b04" stroke="#b33b04" stroke-width="1.51"/><path d="M1953,1246L1760,1277L2053,1311Z" fill="#963004" stroke="#963004" stroke-width="1.51"/><path d="M1896,410L1951,503L2063,492Z" fill="#ca6428" stroke="#ca6428" stroke-width="1.51"/><path d="M1955,964L1908,1149L2082,1136Z" fill="#a73603" stroke="#a73603" stroke-width="1.51"/><path d="M1955,964L2082,1136L2091,1001Z" fill="#a93703" stroke="#a93703" stroke-width="1.51"/><path d="M1980,826L1955,964L2095,867Z" fill="#b94005" stroke="#b94005" stroke-width="1.51"/><path d="M1896,410L2063,492L2100,392Z" fill="#c7662c" stroke="#c7662c" stroke-width="1.51"/><path d="M1981,289L1896,410L2100,392Z" fill="#c96c34" stroke="#c96c34" stroke-width="1.51"/><path d="M1908,1149L1953,1246L2082,1136Z" fill="#9c3204" stroke="#9c3204" stroke-width="1.51"/><path d="M1904,56L1823,185L1981,289Z" fill="#d27e4c" stroke="#d27e4c" stroke-width="1.51"/><path d="M1887,-92L1904,56L2040,-110Z" fill="#d38a64" stroke="#d38a64" stroke-width="1.51"/><path d="M1959,-204L2040,-110L2062,-183Z" fill="#cf8c6b" stroke="#cf8c6b" stroke-width="1.51"/><path d="M1959,-204L1887,-92L2040,-110Z" fill="#d38d6a" stroke="#d38d6a" stroke-width="1.51"/><path d="M1091,1267L680,1319L1366,1329Z" fill="#c1561a" stroke="#c1561a" stroke-width="1.51"/><path d="M1830,543L1896,685L1951,503Z" fill="#ce5e1c" stroke="#ce5e1c" stroke-width="1.51"/><path d="M1837,934L1908,1149L1955,964Z" fill="#b53b03" stroke="#b53b03" stroke-width="1.51"/><path d="M1896,685L1744,857L1980,826Z" fill="#c74b08" stroke="#c74b08" stroke-width="1.51"/><path d="M1837,934L1955,964L1980,826Z" fill="#bd4104" stroke="#bd4104" stroke-width="1.51"/><path d="M1823,185L1896,410L1981,289Z" fill="#d0743d" stroke="#d0743d" stroke-width="1.51"/><path d="M1744,857L1837,934L1980,826Z" fill="#c44505" stroke="#c44505" stroke-width="1.51"/><path d="M1837,934L1834,1165L1908,1149Z" fill="#af3903" stroke="#af3903" stroke-width="1.51"/><path d="M1787,-193L1887,-92L1959,-204Z" fill="#da906d" stroke="#da906d" stroke-width="1.51"/><path d="M1896,410L1835,431L1951,503Z" fill="#d0682b" stroke="#d0682b" stroke-width="1.51"/><path d="M1908,1149L1834,1165L1953,1246Z" fill="#a13403" stroke="#a13403" stroke-width="1.51"/><path d="M1834,1165L1760,1277L1953,1246Z" fill="#a03404" stroke="#a03404" stroke-width="1.51"/><path d="M1835,431L1830,543L1951,503Z" fill="#d06526" stroke="#d06526" stroke-width="1.51"/><path d="M1281,-225L1469,-178L1636,-203Z" fill="#faa376" stroke="#faa376" stroke-width="1.51"/><path d="M1830,543L1774,682L1896,685Z" fill="#d15a17" stroke="#d15a17" stroke-width="1.51"/><path d="M1774,682L1744,857L1896,685Z" fill="#d0510b" stroke="#d0510b" stroke-width="1.51"/><path d="M1823,185L1835,431L1896,410Z" fill="#d37337" stroke="#d37337" stroke-width="1.51"/><path d="M1773,-96L1688,47L1904,56Z" fill="#de8d61" stroke="#de8d61" stroke-width="1.51"/><path d="M1777,136L1823,185L1904,56Z" fill="#d88453" stroke="#d88453" stroke-width="1.51"/><path d="M1887,-92L1773,-96L1904,56Z" fill="#d98c64" stroke="#d98c64" stroke-width="1.51"/><path d="M1688,47L1777,136L1904,56Z" fill="#dd8959" stroke="#dd8959" stroke-width="1.51"/><path d="M1627,1104L1834,1165L1837,934Z" fill="#b93d03" stroke="#b93d03" stroke-width="1.51"/><path d="M1787,-193L1773,-96L1887,-92Z" fill="#de916b" stroke="#de916b" stroke-width="1.51"/><path d="M1603,284L1684,444L1823,185Z" fill="#e17b3e" stroke="#e17b3e" stroke-width="1.51"/><path d="M1823,185L1684,444L1835,431Z" fill="#d97437" stroke="#d97437" stroke-width="1.51"/><path d="M1684,444L1830,543L1835,431Z" fill="#d86a29" stroke="#d86a29" stroke-width="1.51"/><path d="M1744,857L1586,994L1837,934Z" fill="#cc4502" stroke="#cc4502" stroke-width="1.51"/><path d="M1586,994L1627,1104L1837,934Z" fill="#c74202" stroke="#c74202" stroke-width="1.51"/><path d="M1777,136L1603,284L1823,185Z" fill="#e0824b" stroke="#e0824b" stroke-width="1.51"/><path d="M1626,520L1774,682L1830,543Z" fill="#da621d" stroke="#da621d" stroke-width="1.51"/><path d="M1650,1241L1760,1277L1834,1165Z" fill="#a93703" stroke="#a93703" stroke-width="1.51"/><path d="M1627,1104L1650,1241L1834,1165Z" fill="#b23a03" stroke="#b23a03" stroke-width="1.51"/><path d="M1684,444L1626,520L1830,543Z" fill="#de6a26" stroke="#de6a26" stroke-width="1.51"/><path d="M1650,1241L1523,1322L1760,1277Z" fill="#ac3803" stroke="#ac3803" stroke-width="1.51"/><path d="M1655,-43L1688,47L1773,-96Z" fill="#e79265" stroke="#e79265" stroke-width="1.51"/><path d="M1626,520L1593,634L1774,682Z" fill="#e0621a" stroke="#e0621a" stroke-width="1.51"/><path d="M1603,832L1744,857L1774,682Z" fill="#d65108" stroke="#d65108" stroke-width="1.51"/><path d="M1636,-203L1773,-96L1787,-193Z" fill="#e6966f" stroke="#e6966f" stroke-width="1.51"/><path d="M1636,-203L1655,-43L1773,-96Z" fill="#e9966c" stroke="#e9966c" stroke-width="1.51"/><path d="M1593,634L1603,832L1774,682Z" fill="#dd580e" stroke="#dd580e" stroke-width="1.51"/><path d="M1688,47L1603,284L1777,136Z" fill="#e58851" stroke="#e58851" stroke-width="1.51"/><path d="M1603,832L1586,994L1744,857Z" fill="#d54a03" stroke="#d54a03" stroke-width="1.51"/><path d="M898,1261L680,1319L1091,1267Z" fill="#c56125" stroke="#c56125" stroke-width="1.51"/><path d="M1476,79L1456,197L1603,284Z" fill="#f28c50" stroke="#f28c50" stroke-width="1.51"/><path d="M1593,634L1528,725L1603,832Z" fill="#e45a0c" stroke="#e45a0c" stroke-width="1.51"/><path d="M1603,284L1507,373L1684,444Z" fill="#e97a37" stroke="#e97a37" stroke-width="1.51"/><path d="M1655,-43L1476,79L1688,47Z" fill="#ef9360" stroke="#ef9360" stroke-width="1.51"/><path d="M1476,79L1603,284L1688,47Z" fill="#ee8d55" stroke="#ee8d55" stroke-width="1.51"/><path d="M1507,373L1626,520L1684,444Z" fill="#e9722d" stroke="#e9722d" stroke-width="1.51"/><path d="M1469,-178L1491,-54L1636,-203Z" fill="#f69e71" stroke="#f69e71" stroke-width="1.51"/><path d="M1627,1104L1453,1153L1650,1241Z" fill="#bd3e02" stroke="#bd3e02" stroke-width="1.51"/><path d="M1636,-203L1491,-54L1655,-43Z" fill="#f29a6d" stroke="#f29a6d" stroke-width="1.51"/><path d="M1491,-54L1476,79L1655,-43Z" fill="#f49765" stroke="#f49765" stroke-width="1.51"/><path d="M1489,881L1586,994L1603,832Z" fill="#dc4c03" stroke="#dc4c03" stroke-width="1.51"/><path d="M1507,373L1492,525L1626,520Z" fill="#ec732b" stroke="#ec732b" stroke-width="1.51"/><path d="M1453,1153L1523,1322L1650,1241Z" fill="#b83d03" stroke="#b83d03" stroke-width="1.51"/><path d="M464,-232L629,-216L833,-234Z" fill="#ffd0a8" stroke="#ffd0a8" stroke-width="1.51"/><path d="M1492,525L1593,634L1626,520Z" fill="#ea6a20" stroke="#ea6a20" stroke-width="1.51"/><path d="M1586,994L1469,1011L1627,1104Z" fill="#ce4402" stroke="#ce4402" stroke-width="1.51"/><path d="M1469,1011L1453,1153L1627,1104Z" fill="#ca4403" stroke="#ca4403" stroke-width="1.51"/><path d="M1456,197L1507,373L1603,284Z" fill="#f08343" stroke="#f08343" stroke-width="1.51"/><path d="M1528,725L1489,881L1603,832Z" fill="#e25507" stroke="#e25507" stroke-width="1.51"/><path d="M1489,881L1469,1011L1586,994Z" fill="#da4a02" stroke="#da4a02" stroke-width="1.51"/><path d="M1492,525L1528,725L1593,634Z" fill="#ea6519" stroke="#ea6519" stroke-width="1.51"/><path d="M1362,426L1492,525L1507,373Z" fill="#f17a31" stroke="#f17a31" stroke-width="1.51"/><path d="M1453,1153L1366,1329L1523,1322Z" fill="#b94105" stroke="#b94105" stroke-width="1.51"/><path d="M1294,816L1489,881L1528,725Z" fill="#e75b0b" stroke="#e75b0b" stroke-width="1.51"/><path d="M1294,665L1294,816L1528,725Z" fill="#ed6411" stroke="#ed6411" stroke-width="1.51"/><path d="M1492,525L1294,665L1528,725Z" fill="#ee691b" stroke="#ee691b" stroke-width="1.51"/><path d="M1456,197L1362,426L1507,373Z" fill="#f1833e" stroke="#f1833e" stroke-width="1.51"/><path d="M1294,232L1362,426L1456,197Z" fill="#f58b46" stroke="#f58b46" stroke-width="1.51"/><path d="M1385,999L1469,1011L1489,881Z" fill="#dc4e04" stroke="#dc4e04" stroke-width="1.51"/><path d="M1318,50L1476,79L1491,-54Z" fill="#f89b65" stroke="#f89b65" stroke-width="1.51"/><path d="M1347,489L1294,665L1492,525Z" fill="#f27425" stroke="#f27425" stroke-width="1.51"/><path d="M1362,426L1347,489L1492,525Z" fill="#f2792d" stroke="#f2792d" stroke-width="1.51"/><path d="M1385,999L1335,1124L1453,1153Z" fill="#ce4b06" stroke="#ce4b06" stroke-width="1.51"/><path d="M1385,999L1453,1153L1469,1011Z" fill="#d14a05" stroke="#d14a05" stroke-width="1.51"/><path d="M1469,-178L1284,-34L1491,-54Z" fill="#faa170" stroke="#faa170" stroke-width="1.51"/><path d="M1284,-34L1318,50L1491,-54Z" fill="#fba06b" stroke="#fba06b" stroke-width="1.51"/><path d="M1294,816L1385,999L1489,881Z" fill="#e35608" stroke="#e35608" stroke-width="1.51"/><path d="M1335,1124L1366,1329L1453,1153Z" fill="#c24706" stroke="#c24706" stroke-width="1.51"/><path d="M1281,-225L1284,-34L1469,-178Z" fill="#fda776" stroke="#fda776" stroke-width="1.51"/><path d="M1318,50L1456,197L1476,79Z" fill="#f6975c" stroke="#f6975c" stroke-width="1.51"/><path d="M1318,50L1294,232L1456,197Z" fill="#f79757" stroke="#f79757" stroke-width="1.51"/><path d="M1216,91L1294,232L1318,50Z" fill="#fb9d5f" stroke="#fb9d5f" stroke-width="1.51"/><path d="M1207,524L1294,665L1347,489Z" fill="#f67927" stroke="#f67927" stroke-width="1.51"/><path d="M1294,232L1223,285L1362,426Z" fill="#f78c44" stroke="#f78c44" stroke-width="1.51"/><path d="M1182,1245L1091,1267L1366,1329Z" fill="#c04d0e" stroke="#c04d0e" stroke-width="1.51"/><path d="M1335,1124L1182,1245L1366,1329Z" fill="#c24b09" stroke="#c24b09" stroke-width="1.51"/><path d="M1294,816L1183,881L1385,999Z" fill="#e75c0b" stroke="#e75c0b" stroke-width="1.51"/><path d="M1183,881L1176,1004L1385,999Z" fill="#e5590b" stroke="#e5590b" stroke-width="1.51"/><path d="M1229,1104L1335,1124L1385,999Z" fill="#d35008" stroke="#d35008" stroke-width="1.51"/><path d="M1176,1004L1229,1104L1385,999Z" fill="#da550a" stroke="#da550a" stroke-width="1.51"/><path d="M1223,285L1157,438L1362,426Z" fill="#f9893e" stroke="#f9893e" stroke-width="1.51"/><path d="M1229,1104L1182,1245L1335,1124Z" fill="#cb500b" stroke="#cb500b" stroke-width="1.51"/><path d="M1157,438L1347,489L1362,426Z" fill="#f78134" stroke="#f78134" stroke-width="1.51"/><path d="M1281,-225L1165,-160L1284,-34Z" fill="#ffac79" stroke="#ffac79" stroke-width="1.51"/><path d="M1157,438L1207,524L1347,489Z" fill="#f88132" stroke="#f88132" stroke-width="1.51"/><path d="M1165,-160L1190,-42L1284,-34Z" fill="#ffac77" stroke="#ffac77" stroke-width="1.51"/><path d="M1207,524L1179,659L1294,665Z" fill="#f67724" stroke="#f67724" stroke-width="1.51"/><path d="M1294,665L1179,659L1294,816Z" fill="#f26d18" stroke="#f26d18" stroke-width="1.51"/><path d="M1284,-34L1216,91L1318,50Z" fill="#fda267" stroke="#fda267" stroke-width="1.51"/><path d="M1190,-42L1216,91L1284,-34Z" fill="#fea66d" stroke="#fea66d" stroke-width="1.51"/><path d="M1216,91L1223,285L1294,232Z" fill="#fb9955" stroke="#fb9955" stroke-width="1.51"/><path d="M1179,659L1183,881L1294,816Z" fill="#f06915" stroke="#f06915" stroke-width="1.51"/><path d="M1081,-223L1165,-160L1281,-225Z" fill="#ffb281" stroke="#ffb281" stroke-width="1.51"/><path d="M1179,659L997,744L1183,881Z" fill="#f3711e" stroke="#f3711e" stroke-width="1.51"/><path d="M997,744L995,802L1183,881Z" fill="#f27020" stroke="#f27020" stroke-width="1.51"/><path d="M1190,-42L1041,85L1216,91Z" fill="#ffa96e" stroke="#ffa96e" stroke-width="1.51"/><path d="M1041,85L1057,292L1216,91Z" fill="#fda463" stroke="#fda463" stroke-width="1.51"/><path d="M1216,91L1057,292L1223,285Z" fill="#fc9b57" stroke="#fc9b57" stroke-width="1.51"/><path d="M1057,292L1157,438L1223,285Z" fill="#fb9349" stroke="#fb9349" stroke-width="1.51"/><path d="M1084,1135L1182,1245L1229,1104Z" fill="#cc5512" stroke="#cc5512" stroke-width="1.51"/><path d="M1176,1004L1084,1135L1229,1104Z" fill="#d75912" stroke="#d75912" stroke-width="1.51"/><path d="M981,567L1179,659L1207,524Z" fill="#f9802e" stroke="#f9802e" stroke-width="1.51"/><path d="M1165,-160L1060,-108L1190,-42Z" fill="#ffb17d" stroke="#ffb17d" stroke-width="1.51"/><path d="M1157,438L981,567L1207,524Z" fill="#fa8736" stroke="#fa8736" stroke-width="1.51"/><path d="M1084,1135L1091,1267L1182,1245Z" fill="#c85616" stroke="#c85616" stroke-width="1.51"/><path d="M1034,941L1176,1004L1183,881Z" fill="#e86216" stroke="#e86216" stroke-width="1.51"/><path d="M1060,-108L1041,85L1190,-42Z" fill="#ffaf78" stroke="#ffaf78" stroke-width="1.51"/><path d="M995,802L1034,941L1183,881Z" fill="#ee6b1d" stroke="#ee6b1d" stroke-width="1.51"/><path d="M1057,292L998,383L1157,438Z" fill="#fc9449" stroke="#fc9449" stroke-width="1.51"/><path d="M1034,941L1084,1135L1176,1004Z" fill="#df6018" stroke="#df6018" stroke-width="1.51"/><path d="M981,567L997,744L1179,659Z" fill="#f87e2c" stroke="#f87e2c" stroke-width="1.51"/><path d="M998,383L981,567L1157,438Z" fill="#fc8f40" stroke="#fc8f40" stroke-width="1.51"/><path d="M1081,-223L1060,-108L1165,-160Z" fill="#ffb583" stroke="#ffb583" stroke-width="1.51"/><path d="M1041,85L919,260L1057,292Z" fill="#fea561" stroke="#fea561" stroke-width="1.51"/><path d="M896,43L1041,85L1060,-108Z" fill="#ffb37a" stroke="#ffb37a" stroke-width="1.51"/><path d="M1034,941L931,1042L1084,1135Z" fill="#df641d" stroke="#df641d" stroke-width="1.51"/><path d="M1084,1135L898,1261L1091,1267Z" fill="#ca5b1c" stroke="#ca5b1c" stroke-width="1.51"/><path d="M833,-234L1060,-108L1081,-223Z" fill="#ffbc8b" stroke="#ffbc8b" stroke-width="1.51"/><path d="M931,1042L898,1261L1084,1135Z" fill="#d36220" stroke="#d36220" stroke-width="1.51"/><path d="M845,1193L898,1261L931,1042Z" fill="#d16626" stroke="#d16626" stroke-width="1.51"/><path d="M981,567L895,670L997,744Z" fill="#fa8331" stroke="#fa8331" stroke-width="1.51"/><path d="M889,523L981,567L998,383Z" fill="#fd9143" stroke="#fd9143" stroke-width="1.51"/><path d="M828,-106L896,43L1060,-108Z" fill="#ffbb85" stroke="#ffbb85" stroke-width="1.51"/><path d="M833,-234L828,-106L1060,-108Z" fill="#ffbf8e" stroke="#ffbf8e" stroke-width="1.51"/><path d="M896,43L919,260L1041,85Z" fill="#ffaf70" stroke="#ffaf70" stroke-width="1.51"/><path d="M919,260L998,383L1057,292Z" fill="#fd9e55" stroke="#fd9e55" stroke-width="1.51"/><path d="M995,802L847,847L1034,941Z" fill="#f07325" stroke="#f07325" stroke-width="1.51"/><path d="M847,847L931,1042L1034,941Z" fill="#ec6e25" stroke="#ec6e25" stroke-width="1.51"/><path d="M847,847L995,802L997,744Z" fill="#f47928" stroke="#f47928" stroke-width="1.51"/><path d="M895,670L847,847L997,744Z" fill="#f77d2d" stroke="#f77d2d" stroke-width="1.51"/><path d="M919,260L870,379L998,383Z" fill="#fd9f55" stroke="#fd9f55" stroke-width="1.51"/><path d="M870,379L889,523L998,383Z" fill="#fe994d" stroke="#fe994d" stroke-width="1.51"/><path d="M889,523L895,670L981,567Z" fill="#fc8b3b" stroke="#fc8b3b" stroke-width="1.51"/><path d="M896,43L730,134L919,260Z" fill="#ffb376" stroke="#ffb376" stroke-width="1.51"/><path d="M700,1149L845,1193L931,1042Z" fill="#d66b2c" stroke="#d66b2c" stroke-width="1.51"/><path d="M730,957L700,1149L931,1042Z" fill="#e07130" stroke="#e07130" stroke-width="1.51"/><path d="M847,847L730,957L931,1042Z" fill="#ed742d" stroke="#ed742d" stroke-width="1.51"/><path d="M889,523L767,531L895,670Z" fill="#fd9042" stroke="#fd9042" stroke-width="1.51"/><path d="M699,276L750,340L919,260Z" fill="#feab67" stroke="#feab67" stroke-width="1.51"/><path d="M730,134L699,276L919,260Z" fill="#ffb170" stroke="#ffb170" stroke-width="1.51"/><path d="M750,340L870,379L919,260Z" fill="#fea55e" stroke="#fea55e" stroke-width="1.51"/><path d="M870,379L767,531L889,523Z" fill="#fe994d" stroke="#fe994d" stroke-width="1.51"/><path d="M734,644L847,847L895,670Z" fill="#f98538" stroke="#f98538" stroke-width="1.51"/><path d="M767,531L734,644L895,670Z" fill="#fc9043" stroke="#fc9043" stroke-width="1.51"/><path d="M828,-106L679,-24L896,43Z" fill="#ffc08c" stroke="#ffc08c" stroke-width="1.51"/><path d="M845,1193L680,1319L898,1261Z" fill="#c8662c" stroke="#c8662c" stroke-width="1.51"/><path d="M679,-24L730,134L896,43Z" fill="#ffbd86" stroke="#ffbd86" stroke-width="1.51"/><path d="M761,-183L828,-106L833,-234Z" fill="#ffc597" stroke="#ffc597" stroke-width="1.51"/><path d="M734,644L724,896L847,847Z" fill="#f68238" stroke="#f68238" stroke-width="1.51"/><path d="M724,896L730,957L847,847Z" fill="#f07b35" stroke="#f07b35" stroke-width="1.51"/><path d="M750,340L767,531L870,379Z" fill="#fea057" stroke="#fea057" stroke-width="1.51"/><path d="M629,-216L761,-183L833,-234Z" fill="#ffca9f" stroke="#ffca9f" stroke-width="1.51"/><path d="M700,1149L680,1319L845,1193Z" fill="#cc6b31" stroke="#cc6b31" stroke-width="1.51"/><path d="M581,791L724,896L734,644Z" fill="#f78940" stroke="#f78940" stroke-width="1.51"/><path d="M761,-183L679,-24L828,-106Z" fill="#ffc697" stroke="#ffc697" stroke-width="1.51"/><path d="M625,1027L700,1149L730,957Z" fill="#e17738" stroke="#e17738" stroke-width="1.51"/><path d="M613,667L581,791L734,644Z" fill="#fa9148" stroke="#fa9148" stroke-width="1.51"/><path d="M629,-216L679,-24L761,-183Z" fill="#ffcb9e" stroke="#ffcb9e" stroke-width="1.51"/><path d="M599,561L734,644L767,531Z" fill="#fd984e" stroke="#fd984e" stroke-width="1.51"/><path d="M750,340L629,364L767,531Z" fill="#fea55f" stroke="#fea55f" stroke-width="1.51"/><path d="M629,364L599,561L767,531Z" fill="#fda25a" stroke="#fda25a" stroke-width="1.51"/><path d="M629,-216L560,-101L679,-24Z" fill="#ffcda2" stroke="#ffcda2" stroke-width="1.51"/><path d="M679,-24L551,80L730,134Z" fill="#ffc38e" stroke="#ffc38e" stroke-width="1.51"/><path d="M699,276L629,364L750,340Z" fill="#fdad6a" stroke="#fdad6a" stroke-width="1.51"/><path d="M563,1155L680,1319L700,1149Z" fill="#ce7139" stroke="#ce7139" stroke-width="1.51"/><path d="M539,196L699,276L730,134Z" fill="#feb97d" stroke="#feb97d" stroke-width="1.51"/><path d="M599,561L613,667L734,644Z" fill="#fb974e" stroke="#fb974e" stroke-width="1.51"/><path d="M724,896L625,1027L730,957Z" fill="#ec7b38" stroke="#ec7b38" stroke-width="1.51"/><path d="M551,80L539,196L730,134Z" fill="#fdc18a" stroke="#fdc18a" stroke-width="1.51"/><path d="M581,791L625,1027L724,896Z" fill="#f0823e" stroke="#f0823e" stroke-width="1.51"/><path d="M563,1155L572,1328L680,1319Z" fill="#c8713c" stroke="#c8713c" stroke-width="1.51"/><path d="M625,1027L563,1155L700,1149Z" fill="#d9773c" stroke="#d9773c" stroke-width="1.51"/><path d="M539,196L629,364L699,276Z" fill="#feb476" stroke="#feb476" stroke-width="1.51"/><path d="M-52,-227L179,-210L325,-249Z" fill="#ffe8d2" stroke="#ffe8d2" stroke-width="1.51"/><path d="M560,-101L551,80L679,-24Z" fill="#ffca9b" stroke="#ffca9b" stroke-width="1.51"/><path d="M404,428L453,557L599,561Z" fill="#ffaa67" stroke="#ffaa67" stroke-width="1.51"/><path d="M581,791L444,816L625,1027Z" fill="#f38948" stroke="#f38948" stroke-width="1.51"/><path d="M444,816L383,958L625,1027Z" fill="#f0894c" stroke="#f0894c" stroke-width="1.51"/><path d="M539,196L386,283L629,364Z" fill="#febb7f" stroke="#febb7f" stroke-width="1.51"/><path d="M386,283L404,428L629,364Z" fill="#feb77a" stroke="#feb77a" stroke-width="1.51"/><path d="M404,428L599,561L629,364Z" fill="#ffab69" stroke="#ffab69" stroke-width="1.51"/><path d="M464,-232L560,-101L629,-216Z" fill="#ffd4ae" stroke="#ffd4ae" stroke-width="1.51"/><path d="M383,958L563,1155L625,1027Z" fill="#e38046" stroke="#e38046" stroke-width="1.51"/><path d="M419,-17L551,80L560,-101Z" fill="#ffcfa3" stroke="#ffcfa3" stroke-width="1.51"/><path d="M383,958L388,1134L563,1155Z" fill="#df834c" stroke="#df834c" stroke-width="1.51"/><path d="M563,1155L459,1329L572,1328Z" fill="#c97543" stroke="#c97543" stroke-width="1.51"/><path d="M404,697L581,791L613,667Z" fill="#fb9651" stroke="#fb9651" stroke-width="1.51"/><path d="M599,561L453,557L613,667Z" fill="#fd9f59" stroke="#fd9f59" stroke-width="1.51"/><path d="M453,557L404,697L613,667Z" fill="#fd9f5b" stroke="#fd9f5b" stroke-width="1.51"/><path d="M404,697L444,816L581,791Z" fill="#f99653" stroke="#f99653" stroke-width="1.51"/><path d="M388,1134L459,1329L563,1155Z" fill="#d07c49" stroke="#d07c49" stroke-width="1.51"/><path d="M396,142L539,196L551,80Z" fill="#fec794" stroke="#fec794" stroke-width="1.51"/><path d="M464,-232L419,-17L560,-101Z" fill="#ffd5af" stroke="#ffd5af" stroke-width="1.51"/><path d="M419,-17L396,142L551,80Z" fill="#fecd9f" stroke="#fecd9f" stroke-width="1.51"/><path d="M396,142L386,283L539,196Z" fill="#fec590" stroke="#fec590" stroke-width="1.51"/><path d="M309,578L304,641L404,697Z" fill="#fea869" stroke="#fea869" stroke-width="1.51"/><path d="M325,-249L249,-85L419,-17Z" fill="#feddbc" stroke="#feddbc" stroke-width="1.51"/><path d="M315,871L383,958L444,816Z" fill="#f49357" stroke="#f49357" stroke-width="1.51"/><path d="M309,578L404,697L453,557Z" fill="#fea867" stroke="#fea867" stroke-width="1.51"/><path d="M404,428L309,578L453,557Z" fill="#ffaf6f" stroke="#ffaf6f" stroke-width="1.51"/><path d="M241,1258L125,1322L459,1329Z" fill="#c88056" stroke="#c88056" stroke-width="1.51"/><path d="M388,1134L241,1258L459,1329Z" fill="#cd8052" stroke="#cd8052" stroke-width="1.51"/><path d="M325,-249L419,-17L464,-232Z" fill="#ffdbba" stroke="#ffdbba" stroke-width="1.51"/><path d="M287,57L396,142L419,-17Z" fill="#fed3a8" stroke="#fed3a8" stroke-width="1.51"/><path d="M383,958L301,1116L388,1134Z" fill="#e18954" stroke="#e18954" stroke-width="1.51"/><path d="M404,697L315,871L444,816Z" fill="#f9995a" stroke="#f9995a" stroke-width="1.51"/><path d="M301,1116L241,1258L388,1134Z" fill="#d58556" stroke="#d58556" stroke-width="1.51"/><path d="M284,215L386,283L396,142Z" fill="#fec997" stroke="#fec997" stroke-width="1.51"/><path d="M386,283L252,420L404,428Z" fill="#febc82" stroke="#febc82" stroke-width="1.51"/><path d="M252,420L309,578L404,428Z" fill="#ffb67a" stroke="#ffb67a" stroke-width="1.51"/><path d="M304,641L315,871L404,697Z" fill="#fc9f61" stroke="#fc9f61" stroke-width="1.51"/><path d="M249,-85L287,57L419,-17Z" fill="#fed9b4" stroke="#fed9b4" stroke-width="1.51"/><path d="M266,953L301,1116L383,958Z" fill="#ea8d59" stroke="#ea8d59" stroke-width="1.51"/><path d="M304,641L183,814L315,871Z" fill="#fca064" stroke="#fca064" stroke-width="1.51"/><path d="M287,57L284,215L396,142Z" fill="#fdd0a3" stroke="#fdd0a3" stroke-width="1.51"/><path d="M183,349L252,420L284,215Z" fill="#ffc490" stroke="#ffc490" stroke-width="1.51"/><path d="M315,871L266,953L383,958Z" fill="#f2925b" stroke="#f2925b" stroke-width="1.51"/><path d="M284,215L252,420L386,283Z" fill="#fec38e" stroke="#fec38e" stroke-width="1.51"/><path d="M-47,1273L-205,1287L125,1322Z" fill="#cc8a6a" stroke="#cc8a6a" stroke-width="1.51"/><path d="M182,278L183,349L284,215Z" fill="#ffc898" stroke="#ffc898" stroke-width="1.51"/><path d="M252,420L138,509L309,578Z" fill="#ffb67d" stroke="#ffb67d" stroke-width="1.51"/><path d="M179,-210L249,-85L325,-249Z" fill="#ffe2c7" stroke="#ffe2c7" stroke-width="1.51"/><path d="M169,38L284,215L287,57Z" fill="#fed5ad" stroke="#fed5ad" stroke-width="1.51"/><path d="M249,-85L169,38L287,57Z" fill="#fedbb8" stroke="#fedbb8" stroke-width="1.51"/><path d="M266,953L85,1020L301,1116Z" fill="#e9905f" stroke="#e9905f" stroke-width="1.51"/><path d="M98,743L183,814L304,641Z" fill="#fea56b" stroke="#fea56b" stroke-width="1.51"/><path d="M183,814L266,953L315,871Z" fill="#f69861" stroke="#f69861" stroke-width="1.51"/><path d="M85,1020L88,1125L301,1116Z" fill="#e18f63" stroke="#e18f63" stroke-width="1.51"/><path d="M138,509L304,641L309,578Z" fill="#ffb075" stroke="#ffb075" stroke-width="1.51"/><path d="M88,1125L241,1258L301,1116Z" fill="#d7885d" stroke="#d7885d" stroke-width="1.51"/><path d="M138,509L98,743L304,641Z" fill="#ffae75" stroke="#ffae75" stroke-width="1.51"/><path d="M169,38L182,278L284,215Z" fill="#fed1a6" stroke="#fed1a6" stroke-width="1.51"/><path d="M138,-34L169,38L249,-85Z" fill="#fedebf" stroke="#fedebf" stroke-width="1.51"/><path d="M183,814L85,1020L266,953Z" fill="#f59765" stroke="#f59765" stroke-width="1.51"/><path d="M18,644L98,743L138,509Z" fill="#ffb17b" stroke="#ffb17b" stroke-width="1.51"/><path d="M36,880L85,1020L183,814Z" fill="#f79c6b" stroke="#f79c6b" stroke-width="1.51"/><path d="M179,-210L138,-34L249,-85Z" fill="#fee2c6" stroke="#fee2c6" stroke-width="1.51"/><path d="M183,349L138,509L252,420Z" fill="#ffbe88" stroke="#ffbe88" stroke-width="1.51"/><path d="M88,1125L125,1322L241,1258Z" fill="#d08760" stroke="#d08760" stroke-width="1.51"/><path d="M37,-18L-59,121L169,38Z" fill="#fee0c1" stroke="#fee0c1" stroke-width="1.51"/><path d="M37,-18L138,-34L179,-210Z" fill="#fee4ca" stroke="#fee4ca" stroke-width="1.51"/><path d="M-52,-227L37,-18L179,-210Z" fill="#ffe8d3" stroke="#ffe8d3" stroke-width="1.51"/><path d="M169,38L-59,121L182,278Z" fill="#fed8b2" stroke="#fed8b2" stroke-width="1.51"/><path d="M-59,121L-48,255L182,278Z" fill="#ffd4ad" stroke="#ffd4ad" stroke-width="1.51"/><path d="M98,743L36,880L183,814Z" fill="#fba36e" stroke="#fba36e" stroke-width="1.51"/><path d="M-63,439L138,509L183,349Z" fill="#ffc18f" stroke="#ffc18f" stroke-width="1.51"/><path d="M182,278L-48,255L183,349Z" fill="#ffcc9e" stroke="#ffcc9e" stroke-width="1.51"/><path d="M-48,255L-63,439L183,349Z" fill="#ffca9c" stroke="#ffca9c" stroke-width="1.51"/><path d="M88,1125L-47,1273L125,1322Z" fill="#d08a66" stroke="#d08a66" stroke-width="1.51"/><path d="M138,-34L37,-18L169,38Z" fill="#fee0c2" stroke="#fee0c2" stroke-width="1.51"/><path d="M-63,439L-18,583L138,509Z" fill="#ffbd8a" stroke="#ffbd8a" stroke-width="1.51"/><path d="M-18,583L18,644L138,509Z" fill="#ffb782" stroke="#ffb782" stroke-width="1.51"/><path d="M-52,-227L-127,-101L37,-18Z" fill="#ffead5" stroke="#ffead5" stroke-width="1.51"/><path d="M36,880L-29,954L85,1020Z" fill="#f59a6d" stroke="#f59a6d" stroke-width="1.51"/><path d="M85,1020L-21,1109L88,1125Z" fill="#e39269" stroke="#e39269" stroke-width="1.51"/><path d="M-21,1109L-47,1273L88,1125Z" fill="#d98f6a" stroke="#d98f6a" stroke-width="1.51"/><path d="M18,644L36,880L98,743Z" fill="#ffa874" stroke="#ffa874" stroke-width="1.51"/><path d="M18,644L-187,689L36,880Z" fill="#ffac7a" stroke="#ffac7a" stroke-width="1.51"/><path d="M-187,689L-198,829L36,880Z" fill="#ffa97a" stroke="#ffa97a" stroke-width="1.51"/><path d="M-29,954L-21,1109L85,1020Z" fill="#eb966d" stroke="#eb966d" stroke-width="1.51"/><path d="M-110,412L-63,439L-48,255Z" fill="#ffcb9f" stroke="#ffcb9f" stroke-width="1.51"/><path d="M-198,829L-29,954L36,880Z" fill="#faa274" stroke="#faa274" stroke-width="1.51"/><path d="M-127,-101L-59,121L37,-18Z" fill="#ffe4cb" stroke="#ffe4cb" stroke-width="1.51"/><path d="M-29,954L-122,977L-21,1109Z" fill="#ee9970" stroke="#ee9970" stroke-width="1.51"/><path d="M-18,583L-187,689L18,644Z" fill="#ffb583" stroke="#ffb583" stroke-width="1.51"/><path d="M-127,-101L-170,111L-59,121Z" fill="#ffe4c9" stroke="#ffe4c9" stroke-width="1.51"/><path d="M-135,-187L-127,-101L-52,-227Z" fill="#ffeddc" stroke="#ffeddc" stroke-width="1.51"/><path d="M-198,829L-122,977L-29,954Z" fill="#f9a075" stroke="#f9a075" stroke-width="1.51"/><path d="M-168,1142L-47,1273L-21,1109Z" fill="#d9916d" stroke="#d9916d" stroke-width="1.51"/><path d="M-122,977L-168,1142L-21,1109Z" fill="#e69771" stroke="#e69771" stroke-width="1.51"/><path d="M-63,439L-174,571L-18,583Z" fill="#ffbe8d" stroke="#ffbe8d" stroke-width="1.51"/><path d="M-174,571L-187,689L-18,583Z" fill="#ffb888" stroke="#ffb888" stroke-width="1.51"/><path d="M-59,121L-201,230L-48,255Z" fill="#ffd9b6" stroke="#ffd9b6" stroke-width="1.51"/><path d="M-110,412L-174,571L-63,439Z" fill="#ffc395" stroke="#ffc395" stroke-width="1.51"/><path d="M-170,111L-201,230L-59,121Z" fill="#ffdebe" stroke="#ffdebe" stroke-width="1.51"/><path d="M-201,230L-110,412L-48,255Z" fill="#ffd1a9" stroke="#ffd1a9" stroke-width="1.51"/><path d="M-168,1142L-205,1287L-47,1273Z" fill="#d48f6f" stroke="#d48f6f" stroke-width="1.51"/><path d="M-201,230L-174,571L-110,412Z" fill="#ffca9e" stroke="#ffca9e" stroke-width="1.51"/><path d="M-198,829L-168,1142L-122,977Z" fill="#f39d75" stroke="#f39d75" stroke-width="1.51"/><path d="M-135,-187L-170,111L-127,-101Z" fill="#ffead6" stroke="#ffead6" stroke-width="1.51"/><path d="M-201,230L-170,111L-135,-187Z" fill="#ffe4cb" stroke="#ffe4cb" stroke-width="1.51"/><path d="M-198,829L-205,1287L-168,1142Z" fill="#e69874" stroke="#e69874" stroke-width="1.51"/><path d="M-201,230L-187,689L-174,571Z" fill="#ffc396" stroke="#ffc396" stroke-width="1.51"/><path d="M-201,230L-198,829L-187,689Z" fill="#ffbd8e" stroke="#ffbd8e" stroke-width="1.51"/></svg>